<?xml version="1.0" encoding="UTF-8" standalone="no"?>
<!-- Created with Inkscape (http://www.inkscape.org/) -->

<svg
   xmlns:dc="http://purl.org/dc/elements/1.1/"
   xmlns:cc="http://creativecommons.org/ns#"
   xmlns:rdf="http://www.w3.org/1999/02/22-rdf-syntax-ns#"
   xmlns:svg="http://www.w3.org/2000/svg"
   xmlns="http://www.w3.org/2000/svg"
   xmlns:sodipodi="http://sodipodi.sourceforge.net/DTD/sodipodi-0.dtd"
   xmlns:inkscape="http://www.inkscape.org/namespaces/inkscape"
   id="svg2985"
   version="1.1"
   inkscape:version="0.48.2 r9819"
   width="1000"
   height="750"
   xml:space="preserve"
   sodipodi:docname="New document 2"><metadata
     id="metadata2991"><rdf:RDF><cc:Work
         rdf:about=""><dc:format>image/svg+xml</dc:format><dc:type
           rdf:resource="http://purl.org/dc/dcmitype/StillImage" /><dc:title></dc:title></cc:Work></rdf:RDF></metadata><defs
     id="defs2989"><filter
       id="filter3639"
       inkscape:label="Desaturate"
       x="0"
       y="0"
       width="1"
       height="1"
       inkscape:menu="Color"
       inkscape:menu-tooltip="Render in shades of gray by reducing saturation to zero"
       color-interpolation-filters="sRGB"><feColorMatrix
         id="feColorMatrix3641"
         type="saturate"
         values="0" /></filter><filter
       id="filter3643"
       inkscape:label="Desaturate"
       x="0"
       y="0"
       width="1"
       height="1"
       inkscape:menu="Color"
       inkscape:menu-tooltip="Render in shades of gray by reducing saturation to zero"
       color-interpolation-filters="sRGB"><feColorMatrix
         id="feColorMatrix3645"
         type="saturate"
         values="0" /></filter><filter
       id="filter3647"
       inkscape:label="Desaturate"
       x="0"
       y="0"
       width="1"
       height="1"
       inkscape:menu="Color"
       inkscape:menu-tooltip="Render in shades of gray by reducing saturation to zero"
       color-interpolation-filters="sRGB"><feColorMatrix
         id="feColorMatrix3649"
         type="saturate"
         values="0" /></filter><filter
       id="filter3651"
       inkscape:label="Desaturate"
       x="0"
       y="0"
       width="1"
       height="1"
       inkscape:menu="Color"
       inkscape:menu-tooltip="Render in shades of gray by reducing saturation to zero"
       color-interpolation-filters="sRGB"><feColorMatrix
         id="feColorMatrix3653"
         type="saturate"
         values="0" /></filter></defs><sodipodi:namedview
     pagecolor="#ffffff"
     bordercolor="#666666"
     borderopacity="1"
     objecttolerance="10"
     gridtolerance="10"
     guidetolerance="10"
     inkscape:pageopacity="0"
     inkscape:pageshadow="2"
     inkscape:window-width="1920"
     inkscape:window-height="1018"
     id="namedview2987"
     showgrid="false"
     inkscape:zoom="1.5631774"
     inkscape:cx="497.31252"
     inkscape:cy="304.80867"
     inkscape:window-x="-8"
     inkscape:window-y="-8"
     inkscape:window-maximized="1"
     inkscape:current-layer="g2993" /><g
     id="g2993"
     inkscape:groupmode="layer"
     inkscape:label="units"
     transform="matrix(1.25,0,0,-1.25,0,750)"><path
       d="m 102.02246,339.33398 -15.88818,13.15235 c 3.7832,4.56494 9.49609,7.47265 15.88818,7.47265 11.39111,0 20.625,-9.23437 20.625,-20.625 0,-11.39111 -9.23389,-20.62548 -20.625,-20.62548 -6.7959,0 -12.82226,3.28808 -16.57959,8.35791 l 16.57959,12.26757 z"
       style="fill:#ccbf81;fill-opacity:1;fill-rule:nonzero;stroke:#000000;stroke-opacity:1;stroke-width:1;stroke-linecap:butt;stroke-linejoin:miter;stroke-miterlimit:4;stroke-dasharray:none"
       id="path2997" /><path
       d="m 84.3208,277.24414 17.70166,9.2002 -16.9624,9.86425 -1.23731,-0.30078 c 0.6587,1.23633 1.42432,2.40821 2.31153,3.47803 3.7832,4.56494 9.49609,7.47314 15.88818,7.47314 11.39111,0 20.625,-9.23437 20.625,-20.625 0,-11.3916 -9.23389,-20.62597 -20.625,-20.62597 -8.22412,0 -15.32178,4.81543 -18.63379,11.77832 l 0.93213,-0.24219 z"
       style="fill:#ccbf81;fill-opacity:1;fill-rule:nonzero;stroke:#000000;stroke-opacity:1;stroke-width:1;stroke-linecap:butt;stroke-linejoin:miter;stroke-miterlimit:4;stroke-dasharray:none"
       id="path2999" /><path
       d="m 102.02246,232.84375 -19.90234,5.91992 c 0.78222,2.87207 2.16797,5.49414 4.01416,7.72168 3.7832,4.56543 9.49609,7.47363 15.88818,7.47363 11.39111,0 20.625,-9.23437 20.625,-20.625 0,-11.3916 -9.23389,-20.62597 -20.625,-20.62597 -9.39307,0 -17.31348,6.28125 -19.80566,14.87109 l 19.80566,5.26465 z"
       style="fill:#ccbf81;fill-opacity:1;fill-rule:nonzero;stroke:#000000;stroke-opacity:1;stroke-width:1;stroke-linecap:butt;stroke-linejoin:miter;stroke-miterlimit:4;stroke-dasharray:none"
       id="path3001" /><path
       d="m 200,180.50977 -19.90234,5.91992 c 0.78222,2.87207 2.16797,5.49414 4.01416,7.72168 3.7832,4.56543 9.49609,7.47363 15.88818,7.47363 11.39111,0 20.625,-9.23437 20.625,-20.625 0,-11.3916 -9.23389,-20.62598 -20.625,-20.62598 -9.39307,0 -17.31348,6.28125 -19.80566,14.8711 L 200,180.50977 z"
       style="fill:#ccbf81;fill-opacity:1;fill-rule:nonzero;stroke:#000000;stroke-opacity:1;stroke-width:1;stroke-linecap:butt;stroke-linejoin:miter;stroke-miterlimit:4;stroke-dasharray:none"
       id="path3003" /><path
       d="m 101,179.25977 -20.54346,2.58105 c 0.37842,4.28027 2.06397,8.18457 4.65528,11.31152 3.7832,4.56446 9.49609,7.47266 15.88818,7.47266 11.39111,0 20.625,-9.23437 20.625,-20.625 0,-11.3916 -9.23389,-20.62598 -20.625,-20.62598 -10.36133,0 -18.93555,7.64063 -20.40137,17.59473 L 101,179.25977 z"
       style="fill:#ccbf81;fill-opacity:1;fill-rule:nonzero;stroke:#000000;stroke-opacity:1;stroke-width:1;stroke-linecap:butt;stroke-linejoin:miter;stroke-miterlimit:4;stroke-dasharray:none"
       id="path3005" /><g
       id="ghostd"
       inkscape:label="#g3632"
       style="filter:url(#filter3643)"
       inkscape:export-xdpi="90"
       inkscape:export-ydpi="90"
       transform="matrix(0.83257886,0,0,0.83257886,39.230575,50.623133)"><g
         transform="translate(-47.083588,0)"
         id="g3572"><path
           inkscape:connector-curvature="0"
           d="m 315.23047,224.05273 c 0.37891,-8.56054 -0.75733,-16.01269 -0.75733,-16.01269 l -3.65283,6.78223 -3.31445,-8.48829 -5.03272,7.9668 -6.43505,-7.82617 -2.6084,7.82617 -3.92383,-7.9668 -3.75,9 -3,-9 c 0,0 -1.67481,45.01075 17.97754,42.75 11.03808,-1.26953 14.01172,-14.06152 14.49707,-25.03125 z"
           style="fill:#cadfff;fill-opacity:1;fill-rule:nonzero;stroke:#000000;stroke-width:1;stroke-linecap:butt;stroke-linejoin:miter;stroke-miterlimit:4;stroke-opacity:1;stroke-dasharray:none"
           id="path3027" /><path
           inkscape:connector-curvature="0"
           d="m 306.50537,229.20898 0.87549,-1.62597 c 0,0 -4.9e-4,-8.12403 0.24951,-7.74903 0.50049,0.75 0.82715,-0.375 -1.74951,-8.75097 l 0.5,-3.12403 c 0,0 1.99951,-2.75 2.25,0 0.25,2.74903 2.25,6.87403 2.25,6.87403 l 2.74951,-5.625 1.875,15.87597 c 0,0 4.9e-4,4.125 -0.62451,5.375 -0.625,1.24903 -1.875,5.625 -1.875,5.625 l 0,2.5 -4.375,-2.125 -2.75,-1.625 -4.125,0.62403 -1.5,1.5 -2.875,-0.87403 c 0,0 -1.75,-1.25 -2.75,-1.25 -1,0 -5.37549,0.24903 -5.37549,0.24903 l -1.24951,0.62597 1,-3.62597 3,-1.875 4.74951,0.50097 2.75049,2.49903 0.375,1.62597 2.75,-2.75097 4.125,-0.99903"
           style="fill:#000000;fill-opacity:0.28999;fill-rule:nonzero;stroke:none"
           id="path3063" /><path
           inkscape:connector-curvature="0"
           d="m 288.75586,233.95801 -2.50049,-6.75 -1.5,-9.375 -1.24951,-6 -0.62549,-2.74903 2.12549,19.24903 1.99951,7.875 2.12549,-2.49903"
           style="fill:#ffffff;fill-opacity:0.50998996;fill-rule:nonzero;stroke:none"
           id="path3111" /><path
           inkscape:connector-curvature="0"
           d="m 294.75586,247.45801 2.74951,-2.49903 2.25,0.24903 -4.99951,2.25 z"
           style="fill:#ffffff;fill-opacity:0.50998996;fill-rule:nonzero;stroke:none"
           id="path3113" /></g></g><g
       id="ghostl"
       inkscape:label="#g3594"
       style="filter:url(#filter3647)"
       inkscape:export-xdpi="90"
       inkscape:export-ydpi="90"
       transform="matrix(0.83257886,0,0,0.83257886,39.230575,50.623133)"><path
         inkscape:connector-curvature="0"
         id="path3115"
         style="fill:#cadfff;fill-opacity:1;fill-rule:nonzero;stroke:#000000;stroke-width:1;stroke-linecap:butt;stroke-linejoin:miter;stroke-miterlimit:4;stroke-opacity:1;stroke-dasharray:none"
         d="m 234.90006,276.75562 c -0.3789,-8.56054 0.75733,-16.01269 0.75733,-16.01269 l 3.65234,6.78223 6.95605,-7.82618 1.39161,7.30469 6.43505,-7.82617 2.6084,7.82617 5.73926,-7.30469 2.95703,6.78223 3.47803,-6.78223 c 0,0 0.17383,44.34864 -19.47852,42.08741 -11.03759,-1.26905 -14.01123,-14.06104 -14.49658,-25.03077 z" /><path
         inkscape:connector-curvature="0"
         id="path3189"
         style="fill:#000000;fill-opacity:0.28999;fill-rule:nonzero;stroke:none"
         d="m 253.99967,301.41139 c -0.25098,-5.4878 2.60254,-6.58545 1.25049,-18.74952 -1.25049,-11.25 -2.25,-23.125 -2.25,-23.125 l 3.5,7.5 5.93994,-7.33789 3.68506,7.08692 2.74609,-6.50488 c 0,0 -0.31006,11.62109 -2.62109,22.4121 -3.125,14.59327 -12.25049,18.71827 -12.25049,18.71827 z" /><path
         inkscape:connector-curvature="0"
         id="path3193"
         style="fill:#000000;fill-opacity:0.28999;fill-rule:nonzero;stroke:none"
         d="m 242.37467,284.4109 3.75,-0.375 3.375,2.12597 1.25049,4.125 1.25,2.5 0.375,0.62403 3.12451,-3.99903 -1.5,-3.50097 c 0,0 0.25,-4.125 -0.375,-4.37403 -0.62451,-0.25 -5.25,-0.87597 -5.25,-0.87597 l -5.625,0.50097 -3.49951,0 -1.875,1.25 -1.00049,0" /><path
         inkscape:connector-curvature="0"
         id="path3201"
         style="fill:#ffffff;fill-opacity:0.50998996;fill-rule:nonzero;stroke:none"
         d="m 252.18766,301.03639 -5.625,-0.9375 -3.1875,-2.25 3.1875,-1.12452 4.125,1.87452 1.5,2.4375 z" /><path
         inkscape:connector-curvature="0"
         id="path3203"
         style="fill:#ffffff;fill-opacity:0.50998996;fill-rule:nonzero;stroke:none"
         d="m 237.75016,281.72437 0.75,-15.375 -2.625,-4.125 0.375,21.375 1.125,-1.1875" /></g><g
       id="ghostr"
       inkscape:label="gright"
       style="filter:url(#filter3651)"
       inkscape:export-xdpi="90"
       inkscape:export-ydpi="90"
       transform="matrix(0.83257886,0,0,0.83257886,39.230575,50.623133)"><g
         id="g3560"><path
           d="m 414.70805,270.35839 c 0.37891,-8.56054 -0.75733,-16.01269 -0.75733,-16.01269 l -3.65283,6.78223 -6.95556,-7.82618 -1.39161,7.30469 -6.43505,-7.82617 -2.6084,7.82617 -5.73926,-7.30469 -2.95703,6.78223 -3.47754,-6.78223 c 0,0 -0.17481,44.34864 19.47754,42.08741 11.03808,-1.26905 14.01172,-14.06104 14.49707,-25.03077 z"
           style="fill:#cadfff;fill-opacity:1;fill-rule:nonzero;stroke:#000000;stroke-width:1;stroke-linecap:butt;stroke-linejoin:miter;stroke-miterlimit:4;stroke-opacity:1;stroke-dasharray:none"
           id="path3205"
           inkscape:connector-curvature="0" /><path
           d="m 402.85844,289.51464 c 0,0 3.125,-3.62597 3.125,-4.25 0,-0.625 -3.125,-6.25 -3.125,-6.25 l -2.125,-1.00097 -2.87549,0 0.87549,-2.49903 3.75,-1.875 5,0.62403 5.37451,1.25097 1.875,0.24903 -2.12451,1.00097 -3.75,0 -1,1.5 2.5,4.125 -2.125,4 -5.375,3.125 z"
           style="fill:#000000;fill-opacity:0.28999;fill-rule:nonzero;stroke:none"
           id="path3279"
           inkscape:connector-curvature="0" /><path
           d="m 403.85795,276.13867 0.25049,-7.125 -1.125,-4.99903 -0.75,-5 0.87451,-5.00097 c 0,0 6.00049,5.87597 6.62549,6.50097 0.625,0.62403 4.62451,-5.625 4.62451,-5.625 0,0 1.25098,17.375 1.00049,17.75 -0.25049,0.375 -1.875,4.75 -1.875,4.75 l -4.37549,-1"
           style="fill:#000000;fill-opacity:0.28999;fill-rule:nonzero;stroke:none"
           id="path3285"
           inkscape:connector-curvature="0" /><path
           d="m 405.73295,292.76416 -2.12451,-3.12549 -2.75049,0 4.875,-0.24903 2.50049,0.24903 0.625,1.25049 -3,2.49951"
           style="fill:#000000;fill-opacity:0.28999;fill-rule:nonzero;stroke:none"
           id="path3287"
           inkscape:connector-curvature="0" /><path
           d="m 395.35844,292.76416 -6,-5.62452 -4.3125,-12.1875 -0.9375,-8.4375 -1.5,-6.5625 1.5,2.8125 1.875,13.125 c 0,0 2.4375,2.8125 2.8125,3.75 0.375,0.9375 2.25,5.0625 2.25,5.0625 l 3.75,5.625 0.5625,2.43702 z"
           style="fill:#ffffff;fill-opacity:0.50998996;fill-rule:nonzero;stroke:none"
           id="path3289"
           inkscape:connector-curvature="0" /></g></g><g
       id="pupill"
       inkscape:label="#g3626"
       inkscape:export-xdpi="90"
       inkscape:export-ydpi="90"
       transform="matrix(0.83257886,0,0,0.83257886,39.230575,50.623133)"><path
         inkscape:connector-curvature="0"
         id="path3299"
         style="fill:#000000;fill-opacity:1;fill-rule:nonzero;stroke:#000000;stroke-width:1;stroke-linecap:butt;stroke-linejoin:miter;stroke-miterlimit:4;stroke-opacity:1;stroke-dasharray:none"
         d="m 338.01492,280.72042 c 0,-0.48047 0.38867,-0.86914 0.86914,-0.86914 0.48047,0 0.86914,0.38867 0.86914,0.86914 0,0.48047 -0.38867,0.87012 -0.86914,0.87012 -0.48047,0 -0.86914,-0.38965 -0.86914,-0.87012 z" /></g><g
       id="eyeballl"
       inkscape:label="#g3616"
       inkscape:export-xdpi="90"
       inkscape:export-ydpi="90"
       transform="matrix(0.83257886,0,0,0.83257886,39.230575,50.623133)"><path
         inkscape:connector-curvature="0"
         id="path3297"
         style="fill:#ffcaca;fill-opacity:1;fill-rule:nonzero;stroke:#000000;stroke-width:1;stroke-linecap:butt;stroke-linejoin:miter;stroke-miterlimit:4;stroke-opacity:1;stroke-dasharray:none"
         d="m 329.86986,253.33817 c 0,-3.74609 3.03662,-6.7832 6.78223,-6.7832 3.74609,0 6.7832,3.03711 6.7832,6.7832 0,3.74414 -3.03711,6.7832 -6.7832,6.7832 -3.74561,0 -6.78223,-3.03906 -6.78223,-6.7832 z" /><path
         sodipodi:nodetypes="ccccccccccc"
         inkscape:connector-curvature="0"
         id="path3369"
         style="fill:#000000;fill-opacity:0.28999;fill-rule:nonzero;stroke:none"
         d="m 339.1848,259.37137 0.0352,-0.0879 2.09033,-5.16211 -0.62549,-3.12597 -2.74951,-2.12403 -5.28019,-0.625 3.5896,-1.625 3.37153,0.52624 3.19406,2.22376 1,3.75 -0.87549,3.49903" /><path
         inkscape:connector-curvature="0"
         id="path3375"
         style="fill:#ffffff;fill-opacity:0.50998996;fill-rule:nonzero;stroke:none"
         d="m 333.68529,258.62137 -1.5,-3.75 3.1875,-0.9375 -1.6875,4.6875 z" /></g><g
       id="pupilr"
       inkscape:label="#g3629"
       inkscape:export-xdpi="90"
       inkscape:export-ydpi="90"
       transform="matrix(0.83257886,0,0,0.83257886,39.230575,50.623133)"><path
         id="path3301"
         style="fill:#000000;fill-opacity:1;fill-rule:nonzero;stroke:#000000;stroke-width:1;stroke-linecap:butt;stroke-linejoin:miter;stroke-miterlimit:4;stroke-opacity:1;stroke-dasharray:none"
         d="m 356.67293,281.02609 c 0,-0.8164 0.66211,-1.47754 1.47754,-1.47754 0.81689,0 1.479,0.66114 1.479,1.47754 0,0.81739 -0.66211,1.47949 -1.479,1.47949 -0.81543,0 -1.47754,-0.6621 -1.47754,-1.47949 z"
         inkscape:connector-curvature="0" /></g><g
       id="eyeballr"
       inkscape:label="#g3621"
       inkscape:export-xdpi="90"
       inkscape:export-ydpi="90"
       transform="matrix(0.83257886,0,0,0.83257886,39.230575,50.623133)"><path
         id="path3295"
         style="fill:#ffcaca;fill-opacity:1;fill-rule:nonzero;stroke:#000000;stroke-width:1;stroke-linecap:butt;stroke-linejoin:miter;stroke-miterlimit:4;stroke-opacity:1;stroke-dasharray:none"
         d="m 350.24464,253.76451 c 0,-3.74511 3.03711,-6.78125 6.78321,-6.78125 3.74609,0 6.7832,3.03614 6.7832,6.78125 0,3.74707 -3.03711,6.78321 -6.7832,6.78321 -3.7461,0 -6.78321,-3.03614 -6.78321,-6.78321 z"
         inkscape:connector-curvature="0" /><path
         sodipodi:nodetypes="csccccccccc"
         inkscape:connector-curvature="0"
         id="path3371"
         style="fill:#000000;fill-opacity:0.28999;fill-rule:nonzero;stroke:none"
         d="m 362.18556,258.60826 c 0,-0.375 0.99951,-5.25 0.375,-5.625 -0.62451,-0.375 -3.75,-3.50097 -3.75,-3.50097 l -4.99951,-1.24903 0.25,-0.875 3.04233,-0.70815 2.59579,0.97474 1.875,0.95717 1.23688,1.77624 1.24951,3.125 z" /><path
         inkscape:connector-curvature="0"
         id="path3377"
         style="fill:#ffffff;fill-opacity:0.50998996;fill-rule:nonzero;stroke:none"
         d="m 354.74266,258.46265 -1.875,-3.1875 2.25,-1.875 -0.375,5.0625 z" /></g><g
       id="ghostu"
       inkscape:label="#g3609"
       style="filter:url(#filter3639)"
       inkscape:export-xdpi="90"
       inkscape:export-ydpi="90"
       transform="matrix(0.83257886,0,0,0.83257886,39.230575,50.623133)"><g
         transform="translate(36.336247,-3.5824469)"
         id="g3578"><path
           inkscape:connector-curvature="0"
           d="m 372.23047,224.05273 c 0.37891,-8.56054 -0.75733,-16.01269 -0.75733,-16.01269 l -3.65283,6.78223 -4.81445,-7.73829 -3.53272,7.2168 -4.71728,-7.9668 -4.32617,7.9668 -4.67383,-7.9668 -4.02246,7.44434 -3.47754,-6.78223 c 0,0 -0.17481,44.34864 19.47754,42.08789 11.03808,-1.26953 14.01172,-14.06152 14.49707,-25.03125 z"
           style="fill:#cadfff;fill-opacity:1;fill-rule:nonzero;stroke:#000000;stroke-width:1;stroke-linecap:butt;stroke-linejoin:miter;stroke-miterlimit:4;stroke-opacity:1;stroke-dasharray:none"
           id="path3293" /><path
           sodipodi:nodetypes="ccscccccccccccccccccc"
           inkscape:connector-curvature="0"
           d="m 364.08375,246.15009 1.84506,-5.11322 c 0,0 0.95205,-1.57789 0.57705,-1.95289 -0.375,-0.375 -4.75049,-1.25 -4.75049,-1.25 l -2.74951,1.125 -2.87549,0.99903 -3.99951,-2.12403 -5.625,0.875 -1.25049,-1.625 2.37549,-1.5 5.375,0.875 -4.00049,-1.875 1.75049,-2.12597 3.12451,1.5 4.75049,-0.24903 5.25,-0.625 3.49951,0.87403 2.12549,2.50097 -0.64856,3.49411 -0.66082,1.447 z"
           style="fill:#000000;fill-opacity:0.28999;fill-rule:nonzero;stroke:none"
           id="path3367" /><path
           inkscape:connector-curvature="0"
           d="m 369.50586,238.95898 c 0,0 -1.12598,-2.75097 -1.75049,-2.75097 -0.62451,0 -2.25,-0.24903 -2.25,-0.24903 l -1.875,-0.12597 1.875,-9.62403 0,-5.625 -0.87451,-4.375 -2.50049,-8.12597 6.12549,7.5 c 0,0 3.75,-7.625 3.75,-7.125 0,0.50097 -0.25,14.87597 -0.25,14.87597 l -0.25049,10.99903 -1.99951,4.62597 z"
           style="fill:#000000;fill-opacity:0.28999;fill-rule:nonzero;stroke:none"
           id="path3373" /><path
           inkscape:connector-curvature="0"
           d="m 345.38086,235.77148 c -0.5625,-2.25 -2.4375,-8.8125 -2.4375,-8.8125 l -1.3125,-6.5625 -0.9375,-6 1.6875,0.75 0.5625,5.25 2.4375,11.625 0,3.75 z"
           style="fill:#ffffff;fill-opacity:0.50998996;fill-rule:nonzero;stroke:none"
           id="path3379" /></g></g><path
       d="m 304.91016,143.51367 c 0,-2.80469 -2.27295,-5.07812 -5.07715,-5.07812 -2.8042,0 -5.07715,2.27343 -5.07715,5.07812 0,2.80371 2.27295,5.07715 5.07715,5.07715 2.8042,0 5.07715,-2.27344 5.07715,-5.07715 z"
       style="fill:#993d3d;fill-opacity:1;fill-rule:nonzero;stroke:none"
       id="path3381" /><path
       d="m 299.70215,145.27051 c 0,-0.68262 -0.55322,-1.23633 -1.23633,-1.23633 -0.68262,0 -1.23633,0.55371 -1.23633,1.23633 0,0.68359 0.55371,1.2373 1.23633,1.2373 0.68311,0 1.23633,-0.55371 1.23633,-1.2373 z"
       style="fill:#ffffff;fill-opacity:1;fill-rule:nonzero;stroke:none"
       id="path3383" /><path
       d="m 303.53906,146.97656 c 0,0 0.49268,-3.95117 -1.65527,-5.90429 -1.50879,-1.3711 -5.83887,-0.93164 -5.83887,-0.93164 0,0 4.99219,-5.48243 8.73535,-1.49415 3.74317,3.98829 -1.24121,8.33008 -1.24121,8.33008 z"
       style="fill:#000000;fill-opacity:0.28999;fill-rule:nonzero;stroke:none"
       id="path3385" /><path
       d="m 364.10254,141.00684 c 0,-5.06836 -4.10791,-9.17676 -9.17627,-9.17676 -5.06836,0 -9.17627,4.1084 -9.17627,9.17676 0,5.06738 4.10791,9.17675 9.17627,9.17675 5.06836,0 9.17627,-4.10937 9.17627,-9.17675 z"
       style="fill:#50b569;fill-opacity:1;fill-rule:nonzero;stroke:#858379;stroke-opacity:1;stroke-width:1;stroke-linecap:butt;stroke-linejoin:miter;stroke-miterlimit:4;stroke-dasharray:none"
       id="path3387" /><path
       d="m 363.75,141.47754 -17.64746,0 0,1.17676 17.88281,0 -0.23535,-1.17676 z"
       style="fill:#000000;fill-opacity:0.28999;fill-rule:nonzero;stroke:none"
       id="path3389" /><path
       d="m 346.10254,141.24219 -0.23535,-0.94141 17.88281,0 0,1.17676 -17.64746,-0.23535 z"
       style="fill:#ffffff;fill-opacity:1;fill-rule:nonzero;stroke:none"
       id="path3391" /><path
       d="m 354.92627,150.18359 c 0,0 -5.35693,-0.87793 -6.80615,-3.02246 -1.44971,-2.14453 -2.01758,-4.50683 -2.01758,-4.50683 l 0.58838,0 c 0,0 0.91162,3.4414 2.05908,4.58789 0.52734,0.52734 2.62988,1.66015 4.74805,2.05859 2.49023,0.46875 5.00244,0.16016 5.00244,0.16016 0,0 -1.6919,0.72265 -3.57422,0.72265 z"
       style="fill:#ffffff;fill-opacity:1;fill-rule:nonzero;stroke:none"
       id="path3393" /><path
       d="m 346.57324,140.18359 0.11768,-1.29492 0.58838,-2.17578 0.88232,-1.35254 0.17627,-0.70605 -2.35303,3.35254 -0.11767,2.29394 0.52929,-0.11719"
       style="fill:#ffffff;fill-opacity:1;fill-rule:nonzero;stroke:none"
       id="path3395" /><path
       d="m 347.57324,135.77148 4.82324,-3.4707 3.64747,0.11817 3.23535,0.70605 2.82324,2.82324 1.17676,2.35254 0.29394,2.0586 -0.29394,3.35351 -1.29395,2.64649 -0.58887,1.05957 2.4712,-2.05957 1.64697,-3.0586 0.23535,-3.41211 -1.00049,-3.52832 -2.47021,-3.23633 -2.94092,-1.76464 -2.94141,-0.29395 -3.70605,0.41211 -2.05908,1.35254 -3.0586,3.9414 z"
       style="fill:#000000;fill-opacity:0.28999;fill-rule:nonzero;stroke:none"
       id="path3397" /><path
       d="m 406.75586,152.08398 -16,0 0,16 16,0 0,-16 z"
       style="fill:#333333;fill-opacity:1;fill-rule:nonzero;stroke:none"
       id="path3399" /><path
       d="m 398.50586,164.00684 -7.125,0 0,3.57714 7.125,0 0,-3.57714 z"
       style="fill:#b56060;fill-opacity:1;fill-rule:nonzero;stroke:none"
       id="path3401" /><path
       d="m 406.25586,164.00684 -7.125,0 0,3.57714 7.125,0 0,-3.57714 z"
       style="fill:#b56060;fill-opacity:1;fill-rule:nonzero;stroke:none"
       id="path3403" /><path
       d="m 403.33887,160.05957 -7.49951,0 0,3.57715 7.49951,0 0,-3.57715 z"
       style="fill:#b56060;fill-opacity:1;fill-rule:nonzero;stroke:none"
       id="path3405" /><path
       d="m 406.75586,160.05957 -2.79199,0 0,3.57715 2.79199,0 0,-3.57715 z"
       style="fill:#b56060;fill-opacity:1;fill-rule:nonzero;stroke:none"
       id="path3407" /><path
       d="m 395.25586,160.05957 -4.5,0 0,3.57715 4.5,0 0,-3.57715 z"
       style="fill:#b56060;fill-opacity:1;fill-rule:nonzero;stroke:none"
       id="path3409" /><path
       d="m 398.50586,156.03125 -7.125,0 0,3.57617 7.125,0 0,-3.57617 z"
       style="fill:#b56060;fill-opacity:1;fill-rule:nonzero;stroke:none"
       id="path3411" /><path
       d="m 406.25586,156.03125 -7.125,0 0,3.57617 7.125,0 0,-3.57617 z"
       style="fill:#b56060;fill-opacity:1;fill-rule:nonzero;stroke:none"
       id="path3413" /><path
       d="m 403.33887,152.08398 -7.49951,0 0,3.57715 7.49951,0 0,-3.57715 z"
       style="fill:#b56060;fill-opacity:1;fill-rule:nonzero;stroke:none"
       id="path3415" /><path
       d="m 406.75586,152.08398 -2.79199,0 0,3.57715 2.79199,0 0,-3.57715 z"
       style="fill:#b56060;fill-opacity:1;fill-rule:nonzero;stroke:none"
       id="path3417" /><path
       d="m 395.25586,152.08398 -4.5,0 0,3.57715 4.5,0 0,-3.57715 z"
       style="fill:#b56060;fill-opacity:1;fill-rule:nonzero;stroke:none"
       id="path3419" /><path
       d="m 398.73486,167.8125 -0.7915,-0.79102 0,-2.35449 -5.8125,0 -0.98242,-0.89258 7.35742,0.23243 0.229,3.80566 z"
       style="fill:#000000;fill-opacity:0.28999;fill-rule:nonzero;stroke:none"
       id="path3421" /><path
       d="m 406.25586,167.37598 0,-3.36914 -7.125,0 1.0835,0.57714 5.4165,0 0,2.375 0.625,0.417 z"
       style="fill:#000000;fill-opacity:0.28999;fill-rule:nonzero;stroke:none"
       id="path3423" /><path
       d="m 395.46436,163.63672 -0.58936,-0.38086 0,-2.75488 -4.11914,0 0,-0.70899 4.76758,0 -0.0591,3.84473 z"
       style="fill:#000000;fill-opacity:0.28999;fill-rule:nonzero;stroke:none"
       id="path3425" /><path
       d="m 403.54785,163.63672 -0.63086,-0.42188 0,-2.63086 -6.53613,-0.083 -0.85742,-0.70899 8.23242,0.26758 0,3.36914"
       style="fill:#000000;fill-opacity:0.28999;fill-rule:nonzero;stroke:none"
       id="path3427" /><path
       d="m 406.75586,160.83398 0,-0.77441 -2.54199,0 0.61621,0.61621 1.92578,0.1582 z"
       style="fill:#000000;fill-opacity:0.28999;fill-rule:nonzero;stroke:none"
       id="path3429" /><path
       d="m 406.25586,159.60742 0,-3.57617 -7.125,0 1,0.59473 5.625,0 0,2.29101 0.5,0.69043 z"
       style="fill:#000000;fill-opacity:0.28999;fill-rule:nonzero;stroke:none"
       id="path3431" /><path
       d="m 398.50586,159.60742 0,-3.57617 -7.125,0 0.67187,0.67188 5.78663,0 0,2.42285 0.6665,0.48144 z"
       style="fill:#000000;fill-opacity:0.28999;fill-rule:nonzero;stroke:none"
       id="path3433" /><path
       d="m 406.75586,152.70898 -2.20801,0 -0.58398,-0.625 2.79199,0 0,0.625 z"
       style="fill:#000000;fill-opacity:0.28999;fill-rule:nonzero;stroke:none"
       id="path3435" /><path
       d="m 395.25586,152.70898 0,-0.625 -4.5,0 0.20801,0.625 4.29199,0 z"
       style="fill:#000000;fill-opacity:0.28999;fill-rule:nonzero;stroke:none"
       id="path3437" /><path
       d="m 395.38428,155.78906 -0.12842,-3.08008 -0.8335,0 0,1.95801 0.96192,1.12207 z"
       style="fill:#000000;fill-opacity:0.28999;fill-rule:nonzero;stroke:none"
       id="path3439" /><path
       d="m 403.33887,155.66113 0,-3.57715 -7.49951,0 0.625,0.625 6.20849,0 0,2.375 0.66602,0.57715 z"
       style="fill:#000000;fill-opacity:0.28999;fill-rule:nonzero;stroke:none"
       id="path3441" /></g></svg>